<svg xmlns="http://www.w3.org/2000/svg" width="16" height="16" viewBox="0 0 16 16">
  <g fill="none" fill-rule="evenodd">
    <path fill="#E0E0E0" d="M15,8 C15,11.86575 11.86575,15 8,15 C4.13425,15 1,11.86575 1,8 C1,4.13425 4.13425,1 8,1 C11.86575,1 15,4.13425 15,8 Z"/>
    <path fill="#4D4D4D" d="M9.5,10 L9.5,12.001 L6.5,12.001 L6.5,7 L7.5,7 L7.5,6 L6.5,6 L6.5,4 L9.5,4 L9.5,9 L8.5,9 L8.5,10 L9.5,10 Z M16,8 C16,12.418 12.418,16 8,16 C3.582,16 0,12.418 0,8 C0,3.582 3.582,0 8,0 C12.418,0 16,3.582 16,8 Z M8,2 C4.686,2 2,4.686 2,8 C2,11.314 4.686,14 8,14 C11.314,14 14,11.314 14,8 C14,4.686 11.314,2 8,2 Z"/>
  </g>
</svg>
